<svg width="512" height="512" viewBox="0 0 512 512" fill="none" xmlns="http://www.w3.org/2000/svg">
<rect width="512" height="512" rx="256" fill="black"/>
<path d="M449 230.511V282.07H340.228L428.587 346.3L398.859 388.34L309.979 323.686L344.335 429.566L295.808 446.589L267.694 359.966C265.494 353.039 264.426 345.664 264.426 338.167C264.426 306.403 283.682 272.275 318.413 259.008V253.581C283.682 240.314 264.426 206.178 264.426 174.422C264.426 166.925 265.502 159.55 267.694 152.623L295.808 66L344.335 83.0232L309.979 188.903L398.859 124.249L428.587 166.289L340.228 230.519H449V230.511Z" fill="white"/>
<path d="M63 230.511V282.062H171.772L83.4131 346.3L113.141 388.34L202.021 323.686L167.665 429.558L216.192 446.589L244.306 359.966C246.506 353.039 247.574 345.664 247.574 338.167C247.574 306.403 228.318 272.275 193.587 259.008V253.581C228.318 240.314 247.574 206.178 247.574 174.422C247.574 166.925 246.498 159.55 244.306 152.623L216.192 66L167.665 83.0232L202.021 188.903L113.141 124.249L83.4131 166.289L171.772 230.519H63V230.511Z" fill="white"/>
</svg>
